# xmcd
#
# Track frame offsets:
#	150
#	22218
#	39157
#	61236
#	71971
#	88384
#	107026
#	125653
#	139909
#	156526
#	182717
#
# Disc length: 2603 seconds
#
# Revision: 1
# Processed by: cddbd v1.5.2PL0 Copyright (c) Steve Scherf et al.
# Submitted via: audiograbber 1.83.01
#
DISCID=a80a290b
DTITLE=The Johns - ForeSight And Poorsight
DYEAR=2008
DGENRE=Pop
TTITLE0=Sun For Days
TTITLE1=Defafeatist
TTITLE2=Love In A Dangerous Place
TTITLE3=Compas Rose
TTITLE4=Bear Hugs
TTITLE5=A Snake And Rose
TTITLE6=Wake Me Up
TTITLE7=Can´t Carry No More
TTITLE8=Green Dollar
TTITLE9=Translations
TTITLE10=Are You Still Comming
EXTD=
EXTT0=
EXTT1=
EXTT2=
EXTT3=
EXTT4=
EXTT5=
EXTT6=
EXTT7=
EXTT8=
EXTT9=
EXTT10=
PLAYORDER=
